<svg id="Layer_1" data-name="Layer 1" xmlns="http://www.w3.org/2000/svg" viewBox="0 0 105 105"><defs><style>.cls-1{fill:#95bb4f;}.cls-2{fill:#4e5d4a;}.cls-3{fill:#738a4a;}.cls-4{fill:#455a3f;}</style></defs><title>inner_icons_trixroma</title><path class="cls-1" d="M28.58,78.59c-1.07-.13,0-.41.6-.53-1.79-.1-5.68-.47-6.93-1.12-1.57-.81-2.39-.47-4.4-.7s-1.05-.75,2.23-1.95c2.63-1,3.43-.4,3.51,0l26.69.44,2.84.37-1.35,2.23,15-3.34h11l8.07.92,3,1.51c19.24,4.4,10.72,14.72,11.43,15.14.9.53-4.6.11-6.68.61l-.13,0c-2,.48-2.29.56-.17,1.65s1.71,1-1.27,1.54-13.57.86-9.77,2.15-4.77.64-7.16.36-15.36.51-15.8.31-4.11-.28-7-1.26S37.3,95.86,33,95s8.5-3.68,3-2.76-14.46,9.31-12-.14c.2-.76-2.67,3.65-9.68,3.37A15.29,15.29,0,0,0,6,97.69a9.74,9.74,0,0,1-1.64,1.49c-1.1.72-.32-.33,1.64-1.49,2.87-3.12,6.64-9.64-2.87-11-4.35-.62-4.23-3.21.48-6.28l7.8-4.12c4.12-.5,19,4.17,19,4s3.58.26,3.8-.24S29.93,78.76,28.58,78.59Z"/><path class="cls-2" d="M60.8,46.49c7.26.32,8.72,19.11,18.51,27.76C56.6,72.75,42.26,82.51,31.62,79,18,74.46,8.35,79.62,1.31,81.74c11.2-8.53,5-20.47,9.82-24,5.22-3.46,8.63,2.64,17.53,11.31,5.07,3.79,7.23,3.67,14.08,2.08C51,68.23,48.06,45.24,60.8,46.49Z"/><path class="cls-3" d="M29.05,60.9c-12.19-.38-6.16,13.78-17.6,17.17,18.9,10.66,37.2-1.86,49.7-2.69,16.24-1.08,20.77-.81,30.16,1.86-5.55-2.43-2.4-11-7.62-12.06-5.43-.88-7.66,3.5-18.06,6.9-5.92,1.49-8.45,1.44-16.45.82C39.49,71.75,35.31,61.28,29.05,60.9Z"/><path class="cls-4" d="M38.47,77.86c5.06-2.43,28.76-2.42,40-2.12,1.45,0,1.69,1,.55,1.12s-13.58-.2-20.41,1.28,7,2.75,11.76,3.1C80,82,104.77,85.9,100,91.82s-32.77,11.14-46.43,13-22.22-9.3-52-4.58c-3.31.53,6.57-9.95,21-11,15.56-1.51,34.72,1.44,42.31.25C74.28,88,56.18,84.41,53,84.06S32.15,80.89,38.47,77.86Z"/></svg>