<?xml version="1.0" encoding="utf-8"?>
<!-- Generator: Adobe Illustrator 21.0.2, SVG Export Plug-In . SVG Version: 6.00 Build 0)  -->
<svg version="1.1" id="Layer_1" xmlns="http://www.w3.org/2000/svg" xmlns:xlink="http://www.w3.org/1999/xlink" x="0px" y="0px"
	 viewBox="0 0 105 105" style="enable-background:new 0 0 105 105;" xml:space="preserve">
<style type="text/css">
	.st0{fill:#C4C4C4;}
	.st1{fill:#8F8E8E;}
	.st2{fill:#A09E9E;}
	.st3{fill:#838080;}
	.st4{fill:#6B6A6A;}
	.st5{fill:#8A8989;}
</style>
<path class="st0" d="M67.6,33.2c-0.8,2.6-2.6,2.2-2.5,3.4l16.2,43.1l15.3,0.6c0-1.9,0-6.3-0.1-8.5c-0.2-2.8-2.1-3-3.7-5.1
	c-1.6-2.1-1-1.8-2.1-5.1s-1.2-1.9-1.3-3.6c-0.1-1.7-1.2-1-2.1-3.6s-1-2.9-1.2-5.1c-0.1-2.2-1.2-3.2-1.9-3.7s-1.3-7.7-1.5-10
	c-0.1-2.3-0.9-0.7-1.5-0.7c-0.6,0-0.6-1.5-0.6-3.4c-0.1-1.9-0.3-0.8-1-0.8c-0.8,0.1-2.5-3.7-3.3-5.9c-0.7-2.2-1.5-0.4-3-1.9
	s-2.1,1.6-2.4,3.4C70.7,28,68.7,29.8,67.6,33.2z"/>
<path class="st0" d="M91,62.9c-4.1-18.1-9.3-42.3-16.6-42.8C63,18.4,62.5,63.8,56.6,76.6c-1.7,1.1-3.3,2-4.8,2.7
	c-4.5-3.2-5.2-21.1-9.6-25.9C33.6,37.5,30,31.6,24.7,36.7c-4.8,5.2,1.4,22.8-9.8,35.4c7-3.1,14.7,1.3,28.3,7.9
	c2.6,1.3,5.5,0.8,8.6-0.7c0.7,0.5,1.5,0.6,2.4,0.3c0.9-0.5,1.7-1.5,2.4-3.1C65.5,70.9,76.6,61.5,91,62.9z"/>
<path class="st1" d="M13.9,60.9c4.1-18.1,9.3-42.3,16.6-42.8c12.7-1.8,19.7,56.7,19.7,56.7s-1.6-0.5-4-1.3c0.8,1.3,1.7,2.5,2.7,3.7
	C42,74,32.3,66.3,18.7,73C8,78.2,36.6,58.7,13.9,60.9z"/>
<path class="st1" d="M63.6,39.6c1.6-7.1,2.6-6.2,3.6-5.8c0.3,0.1,0.2,0,0.4,3c0.4,6.4,3.1,10.7,6.6,14.8c4.4,5,4.8,8.5,6,11
	c1.2,2.4,1.9,3.4,3,6.4l0,0.1c1.2,3.4,1.6,4.5,1.6,6.7c0.1,1.7,1.6,3.4,2.4,4l-17.9-2.3l-18,2c0,0.3-0.9-2.3,0.7-4
	c2.7-2.8,3.5-4.3,4.6-7.8c1.1-3.5,1.2-10.9,2.1-12.9c0.9-1.9,1.4-5.6,2.3-6.5C62,47.2,62.4,45.2,63.6,39.6z"/>
<path class="st2" d="M18.5,36.8c2.4-7.1,3.7-6.2,5.2-5.8c0.4,0.1,0.3,0,0.6,3c0.7,6.4,4.5,10.7,9.6,14.8c6.4,5,7,8.5,8.7,11
	c1.7,2.4,2.8,3.4,4.3,6.4l0.1,0.1c1.7,3.4,2.3,4.5,2.4,6.7c0.1,1.7,2.4,3.4,3.5,4L0.7,76.5c-0.1,0.3-1.4-2.3,1-4
	c3.9-2.8,5.1-4.3,6.7-7.8c1.6-3.5,1.7-10.9,3-12.9c1.3-1.9,2-5.6,3.3-6.5C16.1,44.4,16.6,42.4,18.5,36.8z"/>
<path class="st0" d="M26.3,78.8c5.4,0.2,12.4,0.1,15.2,0c0.3-0.5,0.7-2.4-0.5-4.3c-1.1-1.6-7.7-8.3-9.5-8.7
	c-3.3-0.8-6.2-1.1-12.7-0.4c-8.1,0.9-10,8.4-10.9,9.5c-0.4,0.5-0.8,2.9-0.6,2.9C7.4,77.9,8.1,78,8.5,78C12.2,78.2,21,78.6,26.3,78.8
	z"/>
<path class="st3" d="M85.4,70.7c2.8-3.3,4.4-1.6,6.8-0.1c2,0.7,3.1,5.4,2.7,8c-0.4,2.7-4.4,0.5-6.5,0.8c-2.1,0.3-2,2.6-3.7,0.9
	C83.1,78.7,82.6,74,85.4,70.7z"/>
<path class="st4" d="M86.9,78.1c0.7-1.8,5.1-1.4,4.3-3.2c-0.7-1.8-2.6-3.3-3.1-5.2c-0.6-2.3-1.9,0.3-4.3,3.3c-1.9,2.4-0.2,6.5,1,7.5
	C85.3,80.3,86.3,79.5,86.9,78.1z"/>
<path class="st0" d="M26.8,80.9c-3.9-1.9-3-3.6-2.5-5.9c-0.1-1.8,3.6-3.5,6-3.6c2.4-0.1,2,3.7,3,5.5c1,1.8,3,1.3,2.1,3.1
	C34.6,81.6,30.7,82.8,26.8,80.9z"/>
<path class="st5" d="M32.7,78.5c-1.8-0.3-2.5-3.5-4.3-3.3c-1.8,0.2-2,2.8-3.4,3.5c-1.8,0.9,1,1.6,4.4,3.2c2.7,1.2,5.7-0.9,6.1-2.1
	C35.1,79.5,34.1,78.8,32.7,78.5z"/>
<path class="st0" d="M49,79.2c6.3-4.9-3.5-1.1,0.4-3.9c0,0,4.2,1.4,8.4,0c8-2.7,24.5,0.4,18.2,3.2c-8.6,3.8,32.5,22.5,29.1,24.2
	c-13.3,6.3-14.7-7-29.8-0.7C84.4,87.3,35.5,89.7,49,79.2z"/>
<path class="st5" d="M51,76.3c-2.7-0.5-3.8-5.4-6.6-5c-2.8,0.4-3,4.3-5.2,5.4c-2.7,1.4,1.5,2.5,6.7,4.8c4.2,1.9,8.8-1.3,9.4-3.2
	C54.8,77.9,53.2,76.7,51,76.3z"/>
</svg>
