<svg id="Layer_1" data-name="Layer 1" xmlns="http://www.w3.org/2000/svg" viewBox="0 0 105 105"><defs><style>.cls-1{fill:#e5d0cc;}.cls-2{fill:#f3f0ee;}.cls-3{fill:#eaded6;}.cls-4{fill:#f2ebe6;}.cls-5{fill:#bf9d3e;}.cls-6{fill:#986963;}.cls-7{fill:#cda587;}</style></defs><title>inner_icons_trixroma</title><path class="cls-1" d="M.18,55.39C2.38,26.29,30.78,19,44.68,19c18.4-2.3,48.7,12.3,42.1,46s-37.5,41.8-50.2,40.6S-2.42,91.79.18,55.39Z"/><path class="cls-2" d="M48.38,106h-.2c-.5-.2-.5-.9-.5-1.2,0-.6.2-1.8.3-3.2a33.69,33.69,0,0,0,.3-3.6,2.49,2.49,0,0,1-.8-.1c-2.1-.2-6.9-.6-9-1.5-.9-.3-1.8-.6-2.8-.9-2-.6-3.6-1.1-3.9-2v-.1c-.1-.4-.3-1-.4-1.4,0-.1-.1-.2-.1-.3a.1.1,0,0,0-.1-.1c-.2.2-.8.7-1.4,1.3-5.3,5-7.1,6.6-7.6,6.6a2.2,2.2,0,0,1-1.9-.9.37.37,0,0,1,.2-.5c.5-.3,9.2-6.9,9.8-7.6,0-.2.2-.2.2-.3s.1-.2-.4-1.1c-.2-.4-.6-1.1-1.1-2-1.5-2.9-4-7.7-6-9.9-2.6-2.9-4.8-6.4-4.8-7.3,0-.2-.1-.5-.1-.9a15.64,15.64,0,0,1-.1-3.7,4.65,4.65,0,0,1,.3-.9.6.6,0,0,0,.1-.4c-.7,0-4.2.3-7.7.6a18.89,18.89,0,0,0,.4,3.8,56.41,56.41,0,0,1,.7,7.6c0,1.1,1.7,4.1,2.7,5.1,1.2,1.2,8.8,8.7,9.5,9.1l.2.1c.6.3,1.1.6,1.1,1s-.4.6-.7.7-.4.3-.5.5a1,1,0,0,1-.5.8,4.38,4.38,0,0,1-.9.5.35.35,0,0,0-.2.1c0,.2,0,.3.1.4a.45.45,0,0,1,0,.5.54.54,0,0,1-.4.3c-.3.1-.5-.1-.7-.2,0,.1-.1.2-.1.3l.3.2a5.33,5.33,0,0,1-2.3,1.7l-.8.1,5.1-6c-1.6-1.4-10.8-9.3-11.4-11a26.5,26.5,0,0,0-1.3-3.1l-6.8,2.1L3.48,78l7-2.2a13.46,13.46,0,0,0,.2-3.4c-.1-.7-.4-3.6-.6-5.7-.1-1.1-.2-2.1-.2-2.2a.31.31,0,0,0-.1-.2,13,13,0,0,1-.6-3.2v-1.6a21.09,21.09,0,0,1-3.3-.4,23,23,0,0,1-4.2-1.3l-.1-.1c-.2-.2-.5-.6-.3-.9s.7-.2.9-.2c.5.1,1.2.3,1.9.5a28.26,28.26,0,0,0,2.9.8,23.2,23.2,0,0,1,2.4.2c.4-1.4,2.4-8,3.1-9s3-4.3,4.4-6.1l-7.8-5.7v-.1c-.1-.5-.2-1.1.1-1.3a.68.68,0,0,1,.8.2c.7.5,5.2,3.8,7.7,5.6,1.3-1.2,7-6.7,8.1-7.1a10.63,10.63,0,0,0,1.9-1.1l-5.5-9v-.1c0-.4.2-.7.5-.7s.8.4,1,.7c.6,1,3.7,5.7,5.2,8.2.6-.3,1.5-.7,2.4-1.1a.37.37,0,0,1,.3-.1,23.54,23.54,0,0,1,4.5-1.5c1.9-.3,7.3-.7,10-.9l1.6-10.3.1-.1a.63.63,0,0,1,.7-.1c.4.2.3.8.3,1.2-.2,1.1-.7,6.3-1,9.2,1.7.2,4.8.5,5.9.8.6.2,1.6.6,2.6,1s2.3.9,3.1,1.1a10.06,10.06,0,0,1,2.4,1.1,8.08,8.08,0,0,0,2.1.9c.2-.2,1.2-2,2-3.4,1.7-3.1,2.1-3.7,2.4-3.7.1,0,.3-.1.4-.1.4-.1.7-.2.9,0s-.1.6-.2.8c-.5.6-2.8,4.4-4.3,7a37,37,0,0,1,4.4,4,17.65,17.65,0,0,1,2.8,4.4l.1.2c.4,1.3,1.2,4,1.6,4.3s.4.2,1-.2c.2-.1.3-.2.5-.3a45.44,45.44,0,0,1,5.1-2,2.54,2.54,0,0,1,.7-.2l.2-.1c1.7-.7,2.3-.8,2.6-.5a.56.56,0,0,1,.1.6c-.2.6-2,1.2-5.6,2.4a10.7,10.7,0,0,0-1.9.6,11.16,11.16,0,0,0-1.6,1,18.89,18.89,0,0,1,1.8,4.1,16.75,16.75,0,0,0,.4,2,26.54,26.54,0,0,1,.9,5.8c-.2,1.1-.6,6.1-.9,8.7l6,2.3c1.8.4,1.8.6,1.8.8s0,.3-.4.4c-.6.1-5.8-1.7-7.7-2.4a21.79,21.79,0,0,1-1.4,3.4,82.65,82.65,0,0,0-3.9,7.9c0,.2.6.7,2.2,1.4,0,0,5,2.1,5,3.3,0,.4,0,.8-.3.9s-.9,0-2.2-.8c-.9-.6-1.8-1-2.6-1.5a9.16,9.16,0,0,1-2-1.2c-.3-.3-.5-.6-.7-.8-3,3.5-7.9,9.1-8.5,9.3-.2.3.4,2.1.7,3l.1.3a5.34,5.34,0,0,0,.6,1.4c.6,1.5,1.1,2.8.6,3.3s-.8.6-1.1.5-.4-.3-.5-.7c-.2-1.6-1.1-6.4-1.7-7.1-.3.1-.9.6-1.6,1-1.6,1.1-4.1,2.8-5.9,3.1a32.14,32.14,0,0,1-4,.5l-.6,6c.2.7.5,1.6.1,2A1.62,1.62,0,0,1,48.38,106Zm-2.5-8.8c.7.1,1.2.1,1.7.2a7.47,7.47,0,0,0,1.1.1c.4.1.4.4,0,4.3a22.41,22.41,0,0,0-.3,3.1c0,.5.1.6.1.6a5.2,5.2,0,0,0,.5-.3,8.74,8.74,0,0,0-.3-1.4v-.1l.6-6.6h.3a42.19,42.19,0,0,0,4.2-.5c1.7-.3,4.1-1.9,5.6-3a5.69,5.69,0,0,1,1.9-1.1.37.37,0,0,1,.3.1,5.78,5.78,0,0,1,.7,1.4,2.52,2.52,0,0,1-.1-1.9l.3-.3c.5-.3,4.7-5,8.4-9.3l.2-.2.2.2,1,1a8.25,8.25,0,0,0,1.8,1.1q1.2.6,2.7,1.5c1.3.8,1.5.8,1.6.8v-.4c-.1-.5-2.7-2-4.6-2.7-1-.4-2.6-1.2-2.5-2,.1-.6,3.7-7.8,4-8.2a22.67,22.67,0,0,0,1.4-3.5l.1-.3h.1v-.1c.2-2.6.7-7.9.9-9a31.44,31.44,0,0,0-.9-5.6,13.62,13.62,0,0,1-.4-2,18,18,0,0,0-1.9-4.1l-.1-.2.2-.2a17.61,17.61,0,0,1,1.8-1.1,1.69,1.69,0,0,1-.5.2,2.19,2.19,0,0,0-.5.3c-.6.4-1.1.7-1.7.2a14.63,14.63,0,0,1-1.8-4.6l-.3-.6a14.54,14.54,0,0,0-2.6-4.2c-.7-.8-3.3-3-4.6-4.1l-.2-.2.1-.2c.1-.2,3.4-5.8,4.3-7.1-.1,0-.2.1-.3.1a30.69,30.69,0,0,0-2,3.4c-1.5,2.7-2,3.5-2.3,3.6s-1.2-.2-2.6-.9a10.68,10.68,0,0,0-2.3-1c-.4-.1-.9-.3-1.5-.5V32a4.5,4.5,0,0,0,.8.2c.8.1,6.5,3.5,9.4,5.9a12.33,12.33,0,0,1,3.8,6.6,3.09,3.09,0,0,1,.2.8,24.7,24.7,0,0,0,2.9,4.7l.3.4a2.08,2.08,0,0,1,.4,1.9c0,.2-.1.3-.1.5v.2l.3.6.2.3h-.1c.1.1.1.2.2.3v.1c.1.5.3,2,.5,3.5a41.61,41.61,0,0,1-.1,9.3,17.79,17.79,0,0,1-2.5,5.9,5.92,5.92,0,0,1-.4.6c-.1.2-.4.8-.7,1.5a.52.52,0,0,1-.2.4c-.5,1.1-1.1,2.5-1.6,3.5l-.5,1.1a48,48,0,0,1-5.8,7.1c-.1.1-.4.3-.9.8l-.4,1.3-.1-.2-.2.2L57.48,94a19.25,19.25,0,0,1-3.1,1.2,1.63,1.63,0,0,1-.9.4l-.3.1v-.1c-1.5.5-3,.9-4.5,1.3A10.88,10.88,0,0,1,45.88,97.19Zm16.4-2.8c.6,2.2,1.1,5.4,1.1,5.4,0,.2.1.2.1.2s.2,0,.5-.4-.3-1.8-.7-2.7c-.2-.5-.4-1.1-.6-1.5l-.1-.3A2.39,2.39,0,0,1,62.28,94.39Zm-41.2,4.3a1.59,1.59,0,0,0,1.2.4c.6-.2,5.2-4.6,7.2-6.5,1-.9,1.4-1.4,1.5-1.4s.1-.1.2-.1v-.4l-.1.1C31,91.29,22.18,97.89,21.08,98.69Zm11.6-5.9a2.19,2.19,0,0,0,.5.3l.1.1c8.1,3.8,12.7,3.9,15.2,3.2,1.5-.4,3-.8,4.4-1.3a12.78,12.78,0,0,0-1.6-3.8c-.9-1.2-1.8-2.5-1.6-4.1,0-.3.1-.5.1-.8.1-.7.2-1.8,0-2-.1,0-6.1,1.3-7,1-.6-.2-3.2-2-4-2.5-1.4,1.5-3.5,3.8-3.8,4.8C35,87.69,33.38,92,32.68,92.79Zm5.7,3c.1,0,.2.1.4.1a7.39,7.39,0,0,0,1.9.5A9.77,9.77,0,0,1,38.38,95.79Zm-5.9-2.5h0v.2c.2.6,1.8,1.1,3.5,1.6.5.2,1.1.3,1.6.5a40,40,0,0,1-4.5-1.9l-.1-.1A2.19,2.19,0,0,1,32.48,93.29Zm20.8,1.9Zm.9-.2-3.6-9.8c0,.4-.1.8-.1,1.3,0,.3-.1.5-.1.8-.1,1.3.5,2.3,1.5,3.7a13.4,13.4,0,0,1,1.6,3.9c.1,0,.2-.1.3-.1a32,32,0,0,0-1.4-3.1c-.6-1.3-1.1-2.5-1.3-2.9C51,88.09,50.78,86.39,50.58,85.19Zm-28.7,9.1a.52.52,0,0,1,.4.2c.1.1.1.1.2.1h0v-.1a3.54,3.54,0,0,1-.1-.6v-.1ZM51,83.49h0l.1.6a39.11,39.11,0,0,0,.8,4.4c.1.4.7,1.6,1.3,2.9a29.72,29.72,0,0,1,1.4,3.1,23.25,23.25,0,0,0,2.7-1.1l5.5-4.4c0-.1.1-.1.2-.2l-6.3-8.2a28,28,0,0,1-4.8,2.8h-.4a2,2,0,0,0-.5.1Zm-39.7-7.1.1.2a27.62,27.62,0,0,1,1.4,3.4c.4,1.3,7.1,7.2,11.4,10.9l.2.2-1.7,2.3c.1,0,.1-.1.2-.1a1.72,1.72,0,0,0,.7-.4.55.55,0,0,0,.2-.5c0-.3.1-.7.8-1,.3-.1.3-.2.3-.2a4.35,4.35,0,0,0-.7-.4l-.2-.1c-.8-.4-8.8-8.3-9.6-9.2-1-1-2.9-4.2-2.9-5.5a55.06,55.06,0,0,0-.7-7.5c0-.2-.1-.3-.1-.5.2,1.8.4,3.7.5,4.3a17.93,17.93,0,0,1-.2,3.8v.2l-6.6,2.1.1.1Zm17.5-8.9h0a2,2,0,0,1,1,.7,38.25,38.25,0,0,1,2.4,5.4c.2.7,1.4,3.4,2.8,4.4.8.6,3.6,3.2,3.2,3.9-.1.1-.3.4-.9,1.1s-1.6,1.7-2,2.2a45.87,45.87,0,0,0-2.6,4.8c-.4.7-.6,1.3-.7,1.4v.2a2.18,2.18,0,0,0,.4.5c.4-.7,1.5-3.4,2.1-4.8s4-5,4.1-5.2l.2-.2.2.1a40.65,40.65,0,0,0,4.1,2.5c.6.2,5.6-.7,6.7-1a.56.56,0,0,1,.6.1.35.35,0,0,1,.1.2v-.3a1.27,1.27,0,0,1,.1-.6c.2-.3.6-.3,1-.3H52a43.6,43.6,0,0,0,4.7-2.8l.2-.2,6.4,8.6.4-.4v-.1L57,79.59l.2-.2c.4-.4,1.5-1.4,2.5-2.4-.6.5-1.2.9-1.8,1.4-.8.6-1.7,1.3-2.4,1.9-1.8,1.7-8.3,3.3-10.4,3.8H45c-2.1.5-3.4-.2-3.7-.8-.2-.4,0-1.5.8-4.6a19.94,19.94,0,0,0,.6-2.6,1.27,1.27,0,0,0-.1-.6c-.1-.6-.3-1.4.8-1.7s5.2-2.8,6.1-3.5a53,53,0,0,0,4.1-6.5l.2-.3.3.3a17.28,17.28,0,0,0,2.7,2c1.7,1.2,6.7,2,8,2.2,0-.1.1-.3.1-.4a.35.35,0,0,0-.1-.2h-.4a41.51,41.51,0,0,1-4.6-.6,12.64,12.64,0,0,1-5.5-2.9c-.9-.7-.6-1.3-.3-1.9a4.57,4.57,0,0,0,.5-1.4c.2-1-.7-2.3-1.4-3.4a10.62,10.62,0,0,1-1-1.7,6.11,6.11,0,0,0-2.4-2.1c-.5-.3-.7-.4-.8-.6s-.3-.5,6.2-8.4l-.1-.1-.2-.1a18.26,18.26,0,0,0-1.3,1.6c-.2.4-.9,1.1-1.5,1.9s-1.2,1.4-1.5,1.8a33.1,33.1,0,0,0-1.8,2.9l-.1.2h-.2c-1.3-.2-4.2-.7-5.8-.9a28,28,0,0,0-5.9.9l-.2.1-.1-.2c-.1-.3-2.9-6.3-3.4-7.6a2.18,2.18,0,0,0-.4.5h0l3.6,7.3-.1.2a20.81,20.81,0,0,1-2.5,2.3,6.53,6.53,0,0,0-1.5,2l-.3.3-8.7-3.4-.1.3.6.4c.6.2,6.8,2.5,7.4,2.8a.54.54,0,0,1,.3.4c.1.3-.2.7-.5,1.1a8.93,8.93,0,0,0-1.1,2c-.6,1.5-.6,4.6-.5,6.1v.2L20,70.29l.3.4Zm-8.4,3.7c.1.1.2.2.2.3a88.52,88.52,0,0,1,5,7.4c.1.2.6,1,1.2,1.9a45.81,45.81,0,0,1,3.8,6.7c.5,1.4,1,2.6,1.2,3.1h0a5.94,5.94,0,0,0,.4-.8c.9-1.7,2.2-4.2,2.6-4.9.4-.5,1.3-1.5,2-2.3.3-.4.7-.7.8-.9a13.51,13.51,0,0,0-3-3.2,10.77,10.77,0,0,1-3-4.8,50.63,50.63,0,0,0-2.3-5.2c-.2-.3-.4-.4-.5-.4Zm37.5,8.6,6.3,7.7c.2-.2.4-.3.5-.4a59.63,59.63,0,0,0,5.6-6.9l.5-1.1c.4-.9,1-2.2,1.5-3.2a65.53,65.53,0,0,1-7-4.1c-.8,1.2-2.5,3.5-2.7,3.7S60,77.79,57.88,79.79Zm-4-15.2c-.9,1.5-3.5,6-4.1,6.4,0,0-5.1,3.3-6.3,3.6-.5.1-.5.3-.4,1,0,.2.1.5.1.7a17.48,17.48,0,0,1-.6,2.8,19.39,19.39,0,0,0-.8,4.2c.2.3,1.2,1,3,.5h.1q8.4-2.1,10.2-3.6a22.26,22.26,0,0,1,2.4-1.9,17.24,17.24,0,0,0,3.4-3,41.74,41.74,0,0,0,3.3-5.6,1.69,1.69,0,0,1,.2-.5c0-.1,0-.1.1-.2-1.4-.2-6.3-1-8.1-2.2A25.28,25.28,0,0,0,53.88,64.59Zm-34.1,6.8a29.46,29.46,0,0,0,3.3,4.6c-1-1.5-2.2-3.2-2.9-4.1A1.76,1.76,0,0,1,19.78,71.39Zm45.3-2.6c0,.1-.1.2-.1.3a1.09,1.09,0,0,0-.1.5,33.23,33.23,0,0,1-3.4,5.8c-.1.1-.2.3-.4.4l.9-.9c.2-.2,1.5-2.1,2.7-3.8l.2-.2.2.2a79.71,79.71,0,0,0,7.2,4.2h0v-.2c-1-.5-3-1.6-3.6-1.8-.4-.2-3.6-2.3-3.7-2.9v-.2l.1-.2a8.79,8.79,0,0,0,.2-1.4h0A.22.22,0,0,1,65.08,68.79Zm7.6,6.6-7-5.1a16.47,16.47,0,0,0,3.3,2.4c.6.3,2.7,1.4,3.7,1.9.2-.4.3-.7.4-.9a5.74,5.74,0,0,1,.4-.7,21.26,21.26,0,0,0,2.4-5.7,39.81,39.81,0,0,0,.1-9.1c-.2-1.5-.5-2.9-.5-3.5-.1-.1-.1-.2-.2-.4-4.6,1.1-8.4,2.1-9,2.5a72.53,72.53,0,0,1,.1,9.3c-.1.4-.2,1.2-.3,1.9A8.52,8.52,0,0,1,65.68,70.29Zm-43-15.4c-.1.3-.2.7-.3,1-.3,1-2.1,6.5-2.5,7.6-.1.2-.1.4-.2.6a5.17,5.17,0,0,0-.5,3.3c.1.3.1.7.2,1a8,8,0,0,0,.3,1.5l8.9-2.8a20.71,20.71,0,0,1,.5-6.1,6.83,6.83,0,0,1,1.2-2.1,2.74,2.74,0,0,0,.4-.7c-.4-.2-4-1.6-7.3-2.8Zm42.7,12.8c0,.1.1.2.1.3v-.1c.1-.7.2-1.5.3-1.9.2-1,0-8.6-.1-9.2v-.3c.3-.6,5.8-1.9,9.3-2.7,0-.1,0-.1-.1-.2-.8.1-5.2,1.4-9.1,2.6l-.2.1-.1-.2c-.2-.3-.6-1.1-1.1-1.8-.3-.5-.9-1.3-1.4-2.1-.4-.6-.8-1.2-.9-1.4a6.82,6.82,0,0,1-.5-.7,40.07,40.07,0,0,0-3.7-4.8,19.91,19.91,0,0,0-4.2-2.5.78.78,0,0,1-.4-.4V42c-.1.2-.1.4-.2.6a.76.76,0,0,1-.1.4,10.38,10.38,0,0,1,1.2.3h.1a6.78,6.78,0,0,1,.9.6l.9.3-.1.2a4.67,4.67,0,0,0,1,.5c1.8.9,4.2,4.8,4.3,5.2a53.52,53.52,0,0,0,3.5,5,5.51,5.51,0,0,1,.8,3.6v1.8a29.7,29.7,0,0,0,0,5.2A5.12,5.12,0,0,1,65.38,67.69Zm-15.9-15.1a2.19,2.19,0,0,0,.5.3c.8.5,2.2,1.3,2.6,2.4a8.94,8.94,0,0,0,.9,1.6c.8,1.2,1.7,2.6,1.5,3.8a3.71,3.71,0,0,1-.5,1.5c-.3.6-.4.8.1,1.2a13.5,13.5,0,0,0,5.3,2.8,37.63,37.63,0,0,0,4.5.6c.3,0,.4,0,.5.1H65a2.4,2.4,0,0,0,0-1.2,30.87,30.87,0,0,1,0-5.3v-1.8c0-1.3,0-2.4-.7-3.2s-3.4-4.7-3.6-5.1-2.5-4.1-4-4.9a10.91,10.91,0,0,1-1.1-.6C52.88,48.09,50,51.79,49.48,52.59Zm-39.3,11.2c0,.1.1.2.1.3s.1.2.1.3a5.1,5.1,0,0,0,.1.9V64h.3c.8-.1,7.4-.6,8-.6a.52.52,0,0,1,.4.2c0-.1.1-.2.1-.3.4-1,2.1-6.4,2.5-7.6.1-.4.3-.8.4-1.2a13.18,13.18,0,0,0,.5-1.8v-.1c0-.5.1-.7,1.7-1.8a13.27,13.27,0,0,0,2.4-2,10,10,0,0,1,1.1-1,13.37,13.37,0,0,1,3-1.9,1.87,1.87,0,0,0,.7-.6h0l.1-.1a1.47,1.47,0,0,1,.5-.6,32.89,32.89,0,0,0-3.9,2.8,29.59,29.59,0,0,1-3.2,2.4c-.8.6-1.8,1.3-2.2,1.6l-.2.1v-.1c-2-1.6-5.8-4.8-6.7-5.5l-.1.1a1,1,0,0,0,.1.4c.2.3,3.4,2.8,5,4,.6.5,1.2.9,1.3,1,.7.5.4,1,.3,1.4a1.45,1.45,0,0,0-.2.7c-.1.5-.6,1.9-1.1,3.5s-1.1,3.3-1.3,3.9c-.2.9-.8,2.1-1.4,2.3a.64.64,0,0,1-.6,0c-.4-.2-3.3.2-4.9.4-.6.1-1.1.1-1.4.2A7.22,7.22,0,0,1,10.18,63.79Zm0-.5Zm0-.1a5.36,5.36,0,0,0,1.4,0A7.84,7.84,0,0,0,13,63c3.3-.4,4.8-.5,5.2-.3h0a3.09,3.09,0,0,0,1-1.9,34.21,34.21,0,0,1,1.3-3.9c.5-1.5,1-3,1.1-3.4a6.89,6.89,0,0,1,.3-.8c.2-.4.2-.4-.1-.7a11.46,11.46,0,0,1-1.3-1c-4.3-3.4-5.1-4-5.2-4.2h0c-.2.3-.4.5-.5.7-.4.5-3.5,5.8-3.8,7.8a14.13,14.13,0,0,1-.6,2.2,8.08,8.08,0,0,0-.5,3.1A22.27,22.27,0,0,1,10.18,63.19Zm-8.3-5.9A40,40,0,0,0,6,58.49c1.2.2,2.8.3,3.5.4h0v-.2a25,25,0,0,0-2.5-.2,15.1,15.1,0,0,1-3.1-.8c-.7-.2-1.5-.4-1.9-.5h-.2A.1.1,0,0,0,1.88,57.29Zm21.3-3.8,8.3,3.2a5.89,5.89,0,0,1,1.6-2,13.63,13.63,0,0,0,2.2-2.1L32,45.89c-.2.2-.5.4-.7.6a15.09,15.09,0,0,0-2.9,1.9,11,11,0,0,0-1.1,1,14.47,14.47,0,0,1-2.5,2c-1.5,1-1.5,1.1-1.4,1.2v.1C23.28,52.89,23.28,53.19,23.18,53.49Zm43,3.1Zm0,0Zm-8.6-24a1,1,0,0,1-.4.5,2.94,2.94,0,0,0-.7,1.7c0,1.3-.6,4.5-1.3,5.3a5.35,5.35,0,0,0-1.3,2,21.66,21.66,0,0,1,4.4,2.6,36.49,36.49,0,0,1,3.8,4.9,6.82,6.82,0,0,0,.5.7c.2.3.6.8,1,1.5s1,1.6,1.3,2a18.08,18.08,0,0,1,1,1.7,73.64,73.64,0,0,1,9-2.5,1.27,1.27,0,0,1,.1-.6,1.33,1.33,0,0,0-.3-1.4l-.3-.4c-.9-1.1-2.6-3.3-3-4.9a2.35,2.35,0,0,1-.2-.8,11.47,11.47,0,0,0-3.6-6.3,52.64,52.64,0,0,0-9.1-5.8A3.71,3.71,0,0,1,57.58,32.59Zm-24.3,12c.2.5,2,4.6,3.3,7.4a22,22,0,0,1,5.8-.9c1.6.1,4.3.6,5.6.8.4-.7,1.2-2,1.7-2.8.4-.5,1-1.2,1.6-1.9a15.52,15.52,0,0,0,1.5-1.8,11.51,11.51,0,0,1,1.4-1.7c-.1-.1-.1-.1-.2-.1a26.15,26.15,0,0,0-6.5-1,95.78,95.78,0,0,0-12.4,1.2,7.47,7.47,0,0,0-1.2.7l-.2.1-.2-.1C33.58,44.69,33.48,44.59,33.28,44.59Zm-17,.8c.7.6,4.4,3.7,6.5,5.4.5-.4,1.3-1,2-1.5,1-.7,1.9-1.4,3.1-2.4a22.85,22.85,0,0,1,4.5-3.1,13.76,13.76,0,0,0,1.7-.8l-3.3-10.2c-.3.1-.6.3-.9.4-1.8.9-9,6.1-11,8.7-1.6,2.1-2.4,3.1-2.5,3.3Zm-3,3.5c-.1.2-.3.4-.3.5a2.39,2.39,0,0,0-.3.7Zm70.2-4.5a17.28,17.28,0,0,0-1.8.6l-.2.1c-.1,0-.3.1-.7.2-.9.3-2.7,1-3.9,1.5.3-.1.8-.3,1.4-.5A30.42,30.42,0,0,0,83.48,44.39Zm-67.6,1.1,16.2-.1Zm.8-.9.7-.4h.2c.2-.1.7-.4,1.1-.6a81,81,0,0,1,10.5-1.2c-.4,0-.8-.1-1.2-.1a22,22,0,0,0-5.6.2h-.4c-.7.1-2.2.4-2.9.6l-.3.1-.1-.3c-.8-2.4-2.8-9-3.2-10.4-.1,0-.2.1-.3.1l3.4,10.7-.1.2C34.48,43.49,34.08,43.79,33.58,44.09Zm-24-7.3,8,5.9a10.63,10.63,0,0,0,.9-1.1v-.1a4.35,4.35,0,0,1-.7.6l-.1.3-.2-.1c-2.4-1.8-7.2-5.2-7.9-5.8a.1.1,0,0,1-.1-.1A.76.76,0,0,0,9.58,36.79Zm32.7,4.7a14.08,14.08,0,0,1,2,.1c1.6.1,3.6.3,5.1.4,1.3.1,2.3.2,2.5.2a1.42,1.42,0,0,1,.6.2.1.1,0,0,1,.1.1,8.45,8.45,0,0,1,1-2.5,13.4,13.4,0,0,0,1.6-4,9,9,0,0,1,1.2-3.7c-.1,0-.2-.1-.4-.1s-.4-.1-.5-.2a30.19,30.19,0,0,0-9.6-1.7c-5.7.1-9.7.4-11.4,1.1l-.4.1c-.7.3-1.3.5-1.8.7.3,1.2,2.3,7.5,3.1,10.2a15.65,15.65,0,0,1,2.7-.5h.4A17.62,17.62,0,0,1,42.28,41.49Zm13.6-6.4a2.49,2.49,0,0,0-.1.8c0,1.2-1.3,3.7-1.7,4.3a9,9,0,0,0-.5.9,9.18,9.18,0,0,1,1.1-1.5C55.28,39.09,55.88,36.49,55.88,35.09Zm-29.3-.3-.6.3a25.61,25.61,0,0,0-3.6,3A32,32,0,0,1,26.58,34.79Zm-3.8-10.4,5.6,9.1c.1-.1.2-.1.2-.2l-.1-.2c-1.5-2.4-4.7-7.4-5.4-8.4q-.15-.3-.3-.3Zm34.1,8.1h0l-.1.1a1.24,1.24,0,0,0-.2.3l.1-.1C56.78,32.69,56.88,32.59,56.88,32.49Zm-10.7-2.9a30.19,30.19,0,0,1,9.6,1.7,1.69,1.69,0,0,1,.5.2,4.88,4.88,0,0,0,.7.3l.1-.1c-.3-.1-.7-.3-1-.4-1-.4-2-.8-2.6-1a43.84,43.84,0,0,0-6-.8h-.3v-.3c.3-2.8.8-8.4,1-9.5a1.15,1.15,0,0,0,0-.6l-1.5,10.4h-.2c-.5,0-1.1.1-1.8.1h1.5Z"/><path class="cls-3" d="M42.08,75.69a33.5,33.5,0,0,1-.4-3.7,3.43,3.43,0,0,0-1.6-3.1l.3-.9c.8.3,2.1,1.4,2.3,4a14.38,14.38,0,0,0,.4,3.6Z"/><path class="cls-4" d="M40.28,68.79a3.72,3.72,0,0,1-2.2-.8h0a3.75,3.75,0,0,1-1.4-2.5,5.59,5.59,0,0,1,1.5-4.1c.8-.9,1.7-.7,3.8-.3.4.1.9.2,1.4.3a2.44,2.44,0,0,1,1.9,1.3,3.53,3.53,0,0,1-.7,3.4,6.52,6.52,0,0,1-3.8,2.8A.9.9,0,0,0,40.28,68.79Zm-1.6-1.6a2.31,2.31,0,0,0,1.9.6,5.46,5.46,0,0,0,3.1-2.3,3,3,0,0,0,.6-2.5,1.84,1.84,0,0,0-1.2-.8c-.5-.1-1-.2-1.4-.3-2.1-.4-2.5-.4-2.8,0a4.45,4.45,0,0,0-1.2,3.4,2.75,2.75,0,0,0,1,1.9Z"/><path class="cls-5" d="M51,77.39l-2.1,3.7c-.1.4-.8-.6-1.2-.7s1.6-2.3,1.7-2.6-1.9-.4-2.5-.7c-.4-.2-.1-.9,0-1.2Z"/><path class="cls-6" d="M71.78,60.59l2.2,3.7c.3.3-.9.4-1.2.7s-1.2-2.5-1.5-2.7-1.3,1.5-1.8,1.8-.8-.3-1-.6Z"/><path class="cls-6" d="M17,61.49c.5-.3.8-.7.3-.8s-.7-.1-2.8-.3c-1.7-.2-2.3.2-2.4.4a4,4,0,0,1,3.3,1.2C16,62.59,16.48,61.79,17,61.49Z"/><path class="cls-6" d="M28.78,86.39a4.27,4.27,0,0,1-3.1,1.7c-.9.1-.5.9-.7,1.5s0,1.1.4.8.5-.5,2.1-1.9C28.78,87.29,28.88,86.59,28.78,86.39Z"/><path class="cls-6" d="M38.68,48.59c.1-.4,2.3-2.3,1.9-2.4s-.9-1.3-1.1-.9L37,48.79l3.9,1.9c.2-.3.6-.9.2-1.1S38.68,49,38.68,48.59Z"/><path class="cls-6" d="M38.48,25.79c-.5-.3-2.5-.5-2.4-.8s2.2-2.4,1.8-2.5-1-1.2-1.2-.8l-2.3,3.6,4,1.7C38.58,26.69,39,26,38.48,25.79Z"/><path class="cls-6" d="M25.58,48.09c.2-.7-.7-2-1.2-2.5l-.1-1.5-.8.6-1.4-1.2-.3-1c-.1.2-.5.4-.8-.3s-.5-1.4-.8-1.4-.1,1,0,1.5l-1.5.7a5.25,5.25,0,0,0,1.7-.1c.6-.2.7.3.7.6l-.5.9.9-.3,1.3,1.5-.5,1.2.9-.1C23.78,47.39,25.48,48.79,25.58,48.09Z"/><path class="cls-6" d="M20.18,89.69c-.5-.1-1.2.5-1.5.8l-.9.1.4.5-.7.9-.6.2c.1.1.3.3-.1.5s-.8.4-.8.5.6,0,.9,0l.5.9a3.75,3.75,0,0,0-.1-1c-.1-.3.2-.4.3-.5l.6.3-.4-.4.9-.8.7.3-.1-.5C19.88,90.89,20.68,89.79,20.18,89.69Z"/><path class="cls-6" d="M61.88,53.69l-.2-1.7a5.29,5.29,0,0,0-.4,1.6c0,.6-.5.6-.8.5l-.7-.8v.9l-1.8.7-.9-.9-.2.9c-1,.5-2.9,1.7-2.3,2.1s2.1,0,2.8-.3l1.4.4-.3-1,1.6-1,1.1.1c-.1-.2-.2-.6.5-.7.9-.1,1.5-.1,1.6-.3S62.38,53.79,61.88,53.69Z"/><path class="cls-6" d="M53.38,32.19c-.1-.2-.9.4-1.3.8l-1.4-1a3.67,3.67,0,0,0,1,1.4.51.51,0,0,1-.1.9h-1l.7.6-.6,1.9-1.3.2.6.7c-.2,1.1-.5,3.3.2,3.1s1.3-1.6,1.5-2.3l1.2-.8-.9-.4.3-1.9.7-.8c-.2,0-.6-.2-.2-.8C53.08,32.79,53.58,32.39,53.38,32.19Z"/><path class="cls-6" d="M58.38,38.69l.3.4c-.1.7-.3,2,.1,1.8s.8-1,.9-1.4l.7-.5-.5-.2.2-1.1.4-.5c-.1,0-.3-.1-.1-.5s.5-.7.4-.8-.5.3-.8.4l-.8-.5a2.1,2.1,0,0,0,.6.8c.3.2.1.4-.1.5h-.6l.4.3-.4,1.1Z"/><path class="cls-6" d="M78.18,33.89a.65.65,0,0,1-.8.6,8.33,8.33,0,0,0-2.2.3l-.3-2.6c.1-.2.1-.5-.1-.6a8.08,8.08,0,0,0-1.6-.1c.4.1,1.3.5,1.2,1s.3,2.6-.2,2.7-.9.6-1.3-.2-1.8-1.4-2.2-1-.1.6.6.9,2.3,1,1.1,1.3c-1.1.7-1.5.3-1.3,1.2s1.3,1.3,1.5.8.2-1.2.6-1.2,1.7.7,2.3.1,1.9-1.8.8-1.4-.9,1.2-1.6.9-.9-.8-.3-.7a2.66,2.66,0,0,0,1.6-.6c.5-.4,1-.3,1.8-.3s1.1-.9.7-1.3S78.18,33.69,78.18,33.89Z"/><path class="cls-6" d="M32.68,97.89c-.8-.1-2.4-.4-1.4-1,.9-1,1.4-.6.9-1.4s-1.6-1-1.7-.4.1,1.2-.3,1.3-1.8-.3-2.2.4-1.4,2.2-.4,1.5.6-1.4,1.4-1.3,1,.5.5.6a3.07,3.07,0,0,0-1.4.9c-.4.5-.9.5-1.6.7s-.9,1.3-.5,1.6.2,0,.1-.2.1-.8.6-.8a7,7,0,0,0,2-.8l1,2.5c0,.2,0,.5.3.5a11,11,0,0,0,1.6-.3c-.5,0-1.4-.1-1.4-.6s-.9-2.4-.4-2.7.7-.8,1.3-.1,2.1.9,2.4.4S33.48,98,32.68,97.89Z"/><path class="cls-6" d="M8.08,66.59c-.7-.4-2-1.4-.8-1.4,1.2-.5,1.6,0,1.5-.9s-1-1.6-1.4-1.1-.4,1.2-.8,1.1-1.5-1-2.2-.5-2.2,1.4-1,1.2,1.1-1,1.8-.6.7.9.2.8a2.7,2.7,0,0,0-1.7.3c-.5.3-1.1.1-1.8-.1a1,1,0,0,0-1,1.2c.2.4.2.1.2-.1s.4-.7.9-.5a8.13,8.13,0,0,0,2.2.1L4,68.69c-.1.2-.2.5,0,.6s1.1.2,1.6.2c-.4-.2-1.2-.7-1-1.2s.2-2.6.7-2.6,1-.4,1.2.4,1.5,1.7,2,1.4S8.78,67,8.08,66.59Z"/><path class="cls-6" d="M8.08,52.39c-.7.1-1.9,1.4-1.7,1.7a.85.85,0,0,0,.6.2c.2-.8.7-2.1.8-1.4a4.76,4.76,0,0,1,.1,1.6c-.5,0-1.5,0-1.7-.3a2,2,0,0,0-.5-.5c.2-.8.4-2.4-.2-2.3a2.48,2.48,0,0,0-1.4,1.8c-.1,0-.1,0-.2.1s-.2.4-.2.5l4.5,1.4C8.38,54.19,8.68,52.29,8.08,52.39Z"/><path class="cls-6" d="M19.18,30.79c.6.7,1.6,1.1,1.2,1.7s-.7,1.4-.2,1.3.9-1.1,1.4-.8.7,1.1,1,.7.1-1.8.4-2.1.7-1.4,0-1.1a1,1,0,0,1-1.4-.7c-.2-.4-.7-1.6-.9-2.1a.86.86,0,0,1-.7.8c-.3,0-.8-.1-1,.4a4.14,4.14,0,0,1-.9,1.2c-.2.1-.5.2-.2.3A1.09,1.09,0,0,1,19.18,30.79Z"/><path class="cls-6" d="M84.78,51.89c.1-.3.4-.7.1-1.1a3.35,3.35,0,0,1-.7-1.3c0-.2,0-.5-.2-.3a1,1,0,0,1-.9.9c-.9.2-1.7,1-2.1.4s-1-1.2-1.1-.7.6,1.2.2,1.6-1.3.2-1.1.6,1.5.9,1.7,1.3,1,1.2,1,.5.6-1,1.2-1a19.3,19.3,0,0,1,2.3.1A1.1,1.1,0,0,1,84.78,51.89Z"/><path class="cls-6" d="M25.48,75.19a2.49,2.49,0,0,1-2.2-.8c-.6-.8.5-1.1.8-.5s.8.4,1.8.5,1.8-1.6,2.1-2.1-.4-1.1-.6-1.3-.6.1-.9.5-.5.2-.4,0,0-.2-.6-.4.4-.3.9-.5,1.5-.8,1.9-.9.2.7-.2.9.7,1.5,1,1.7.6.9.3.9S26.68,74.89,25.48,75.19Z"/><path class="cls-5" d="M46.68,92.19a2.75,2.75,0,0,1-1.9,1.3c-1,0-.6-1,0-.9s.8-.4,1.4-1.2-.3-2.4-.4-2.9-1.1-.3-1.4-.3-.3.6-.1,1-.1.5-.3.3-.2-.1-.7.2-.1-.5.2-1,.2-1.7.4-2.1.6.3.6.7,1.6.3,2,.3,1.1.1.9.3S47.18,91.09,46.68,92.19Z"/><path class="cls-7" d="M74.18,57.19c-.5,0-.7-.1-2.8-.3-1.7-.2-2.3.2-2.4.4a4,4,0,0,1,3.3,1.2c.6.6,1-.2,1.6-.5S74.68,57.19,74.18,57.19Z"/><path class="cls-7" d="M65.38,74.69a4.43,4.43,0,0,1,2,2.9c.1.8.9.4,1.6.5s1.1-.1.7-.4-.5-.5-2.1-1.9C66.28,74.59,65.58,74.59,65.38,74.69Z"/><path class="cls-7" d="M7.48,81.39c-.8.1-.5.9-.7,1.5s0,1.1.4.8.5-.5,2.1-1.9c1.3-1.1,1.4-1.8,1.3-2.1A4.65,4.65,0,0,1,7.48,81.39Z"/><path class="cls-7" d="M68.58,91c-1.1-1.3-1.8-1.4-2-1.3a4.1,4.1,0,0,1,1.6,3.1c.1.8.9.5,1.5.7s1.1,0,.8-.4S70,92.59,68.58,91Z"/><path class="cls-7" d="M19.78,53.09c-.6.1-2.2,1.3-2.4,1s0-3.2-.4-3.1-1.6-.3-1.4.2l.7,4.2,4.1-1.4C20.38,53.69,20.28,53,19.78,53.09Z"/><path class="cls-7" d="M57.88,28.49c-.2-.6-1.7-1.9-1.4-2.2s3.2-.5,3-.9,0-1.6-.4-1.3L55,25.49l2.1,3.8C57.38,29.29,58,29,57.88,28.49Z"/><path class="cls-7" d="M24.58,65.19l2.9-3.3c-.2-.3-.7-.8-1.1-.5s-1.3,2.2-1.6,2-1.6-2.8-1.8-2.5-1.5.5-1.1.8Z"/><path class="cls-7" d="M32.48,69.29c0,.4-.6,1.5-.1,1.4l4.3.3-.4-4.3c-.3-.1-1,0-1.1.5s.8,2.4.4,2.5S32.48,68.89,32.48,69.29Z"/><path class="cls-7" d="M20,76.39c-.3,0-1,0-1,.5s.8,2.4.5,2.5-3.2-.7-3.1-.2-.6,1.5-.1,1.4l4.3.1Z"/><path class="cls-7" d="M46,34.09c-.3-.3-.5-1.5-.8-1.1l-3.5,2.5,3.1,3c.3-.2.8-.6.5-1s-2.1-1.3-2-1.7S46.28,34.39,46,34.09Z"/><path class="cls-7" d="M18,75.19l.2-.9c1-.5,3-1.6,2.3-2s-2.1,0-2.8.2l-1.4-.4.3,1-1.7.9-1.1-.1c.1.2.2.6-.5.7-.9.1-1.5,0-1.6.3s.9.5,1.4.6l.1,1.7a3.36,3.36,0,0,0,.5-1.6c0-.6.5-.6.8-.5l.6.8V75l1.9-.6Z"/><path class="cls-7" d="M55.68,78.39c.2-.7-.7-2-1.2-2.5l-.1-1.5-.8.6-1.5-1.2-.3-1c-.1.2-.5.4-.8-.3s-.5-1.4-.8-1.4-.1,1,0,1.5l-1.5.7a5.25,5.25,0,0,0,1.7-.1c.6-.2.7.3.7.6l-.5.9.9-.3,1.3,1.5-.5,1.2.9-.1C53.78,77.69,55.48,79.09,55.68,78.39Z"/><path class="cls-7" d="M38.18,56.49l-.5.4-.8-.7-.2-.6c-.1.1-.3.2-.5-.1-.2-.5-.3-.8-.5-.8s-.1.6,0,.9l-.9.4a4.14,4.14,0,0,0,1-.1.3.3,0,0,1,.4.3l-.3.5.5-.2.7.9-.3.7.5-.1c.5.5,1.5,1.3,1.5.8s-.4-1.1-.7-1.4Z"/><path class="cls-7" d="M74.38,43.39c.6.4,2.1,0,2.8-.2l1.4.4-.3-1,1.7-.9,1.1.1c-.1-.2-.2-.6.5-.7.9-.1,1.5,0,1.6-.3s-.9-.5-1.4-.6l-.1-1.7a3.36,3.36,0,0,0-.5,1.6c0,.6-.5.6-.8.5l-.7-.7v.9l-1.9.7-.9-1-.2.9C75.68,41.89,73.68,43,74.38,43.39Z"/><path class="cls-7" d="M28.38,24.89l-.8.7h.9l.8,1.8-.8,1,.9.1c.6,1,1.9,2.8,2.2,2.2s-.1-2.1-.4-2.7l.3-1.5-1,.3-1.1-1.6v-1.1c-.2.1-.6.2-.7-.5-.2-.9-.1-1.5-.4-1.6s-.4.9-.5,1.4l-1.6.3a3.51,3.51,0,0,0,1.6.3C28.38,24.09,28.38,24.69,28.38,24.89Z"/><path class="cls-7" d="M29.38,78.69l.9-.5h.6c-.1-.1-.1-.3.3-.4s.8,0,.8-.2-.5-.2-.7-.3l-.1-.9a2,2,0,0,0-.2.9c0,.3-.3.3-.4.3l-.3-.4v.5l-1,.4-.6-.5-.1.5c-.5.3-1.5.9-1.2,1.1s1.1,0,1.4-.1l.7.2Z"/><path class="cls-7" d="M38.48,72.69l-.8-.3a3.39,3.39,0,0,0,.6.6c.3.1.1.4,0,.5l-.5.1.4.2-.1,1-.6.2.4.3c0,.6.1,1.8.4,1.6s.5-1,.6-1.3l.5-.6-.5-.1-.1-1,.3-.5c-.1,0-.3-.1-.2-.4s.3-.7.2-.8S38.68,72.49,38.48,72.69Z"/><path class="cls-7" d="M52.38,100.39l-.4-.8.1-.5c-.1.1-.3.1-.3-.3s0-.7-.1-.7-.2.4-.3.7h-.8a1.55,1.55,0,0,0,.8.2.24.24,0,0,1,.2.4l-.4.3h.4l.3.9-.4.4.4.1c.2.5.7,1.4.9,1.1s0-1-.1-1.3l.2-.7Z"/><path class="cls-7" d="M49.78,24.79l.3.4c-.1.7-.3,2,.1,1.8s.8-1,.9-1.4l.7-.5-.5-.2.2-1.1.4-.5c-.1,0-.3-.1-.1-.5s.5-.7.4-.8-.5.3-.8.4l-.8-.5a2.1,2.1,0,0,0,.6.8c.3.2.1.4-.1.5h-.6l.4.3-.4,1.1Z"/><path class="cls-7" d="M25.78,40.39c.6.1,2.6-.2,2.7.3s.6.9-.3,1.3-1.5,1.7-1,2.2.5.2.9-.5,1.1-2.2,1.3-1c.7,1.1.2,1.6,1.1,1.3s1.4-1.3.9-1.5-1.2-.3-1.2-.6.8-1.6.2-2.3-1.8-2-1.3-.8,1.2.9.8,1.7-.8.8-.8.3a3.32,3.32,0,0,0-.5-1.6,2.59,2.59,0,0,1-.2-1.8.93.93,0,0,0-1.3-.8c-.3.2-.1.2.1.2s.7.3.6.8a5.58,5.58,0,0,0,.3,2.2l-2.6.2c-.2-.1-.5-.1-.6.1a8.08,8.08,0,0,0-.1,1.6C24.88,41.09,25.28,40.29,25.78,40.39Z"/><path class="cls-7" d="M15.18,68.09a1.59,1.59,0,0,0-1.3.3,2.21,2.21,0,0,1-1.4,0,.66.66,0,0,0-.7.9c.2.3.2.1.1-.1a.6.6,0,0,1,.7-.4,4.85,4.85,0,0,0,1.7,0l-.1,2.1c-.1.1-.2.4,0,.5a4.44,4.44,0,0,0,1.3.2c-.3-.1-1-.5-.8-.9s.1-2,.5-2.1.8-.4,1,.3,1.2,1.3,1.6,1,.2-.4-.4-.7-1.6-1-.7-1.1c.9-.4,1.2,0,1.1-.8s-.9-1.2-1.1-.8-.3.9-.6.9-1.2-.7-1.7-.4-1.7,1.2-.8,1,.8-.8,1.4-.5S15.68,68.19,15.18,68.09Z"/><path class="cls-7" d="M65.28,84.09c-.2-.1-.6-.3-.4-.7a4.88,4.88,0,0,0-.1-1.7h2.1a.35.35,0,0,0,.5-.1c.1-.2.1-.9.2-1.3-.1.3-.5,1-.8.9-.5-.1-2,0-2.1-.4s-.4-.8.3-1,1.2-1.3.9-1.7-.4-.2-.7.4-1,1.7-1.1.8c-.5-.9-.1-1.2-.8-1.1s-1.1.9-.8,1.1.9.3.9.6-.7,1.2-.3,1.8,1.3,1.6,1,.7-.9-.8-.6-1.4.7-.6.6-.2a2.08,2.08,0,0,0,.3,1.3,3.08,3.08,0,0,1,.1,1.4.73.73,0,0,0,1,.7C65.68,84.09,65.48,84.09,65.28,84.09Z"/><path class="cls-7" d="M59.08,98.29c-.3-.2-1.3-.5-1.3-.8s-.1-.6.4-.6,1.1-.5,1-.8-.2-.2-.6.1-1,.8-.9.2c-.1-.7.3-.8-.3-.9s-1,.3-.8.5.5.4.4.6-.7.6-.6,1.1.4,1.4.5.7-.4-.7,0-1,.6-.2.4,0a1.41,1.41,0,0,0-.1.9c.1.3-.1.6-.3.9s.2.7.5.7.1-.1,0-.1-.3-.3-.1-.5a3.58,3.58,0,0,0,.4-1.1l1.4.5c.1.1.2.2.3.1a5.94,5.94,0,0,0,.4-.8C59.68,98.19,59.28,98.49,59.08,98.29Z"/><path class="cls-7" d="M70.48,47.89c-.2.6-.1,2.6-.6,2.7s-1,.5-1.3-.4-1.6-1.6-2.1-1.3-.2.5.5.9,2.1,1.3.9,1.4c-1.2.6-1.6.1-1.4,1s1.1,1.5,1.4,1,.4-1.2.7-1.1,1.6.9,2.2.4,2.1-1.6,1-1.3-1,1.1-1.8.7-.8-.9-.2-.8a3.61,3.61,0,0,0,1.7-.3c.5-.3,1.1-.1,1.8,0s1.2-.8.9-1.2-.2-.1-.2.1-.4.7-.9.5a5.43,5.43,0,0,0-2.2,0l.1-2.7c.1-.2.2-.5-.1-.6s-1.2-.2-1.6-.3C69.88,47,70.68,47.39,70.48,47.89Z"/><path class="cls-7" d="M85.08,68.69a.71.71,0,0,1-1-.2c-.2-.5-1.2-1.1-1.7-1.4l1.8-2c.2-.1.5-.3.3-.5s-.7-.9-1-1.3c.2.4.5,1.3.1,1.5s-1.7,1.9-2.2,1.6-1.1-.3-.7-1.1S80.58,63,80,63s-.5.3-.3,1,.7,2.4-.2,1.7c-1.3-.4-1.2-1-1.7-.2s-.1,1.9.4,1.7,1.1-.7,1.3-.4.6,1.7,1.4,1.8,2.6.2,1.6-.3-1.5.1-1.8-.6,0-1.2.3-.7a2.44,2.44,0,0,0,1.5.8c.6.1.9.6,1.4,1.1a.93.93,0,0,0,1.5-.3C85.38,68.29,85.18,68.49,85.08,68.69Z"/><path class="cls-7" d="M41.48,21.89c.5.4,2.4,1.1,2.2,1.6s.1,1.1-.9,1-2.1.8-2,1.4.4.4,1,0c.8-.4,2.2-1.4,1.8-.2,0,1.3-.6,1.5.3,1.7s1.8-.4,1.5-.9-.9-.8-.7-1.1,1.5-1,1.3-1.9-.6-2.6-.8-1.4.6,1.4-.1,1.9-1.1.3-.8-.1a2.09,2.09,0,0,0,.4-1.7,2.83,2.83,0,0,1,.7-1.6.85.85,0,0,0-.7-1.3c-.4,0-.2.2,0,.2a.66.66,0,0,1,.1,1,7.22,7.22,0,0,0-.9,2l-2.4-1.1c-.1-.1-.4-.4-.6-.2a8.51,8.51,0,0,0-.9,1.4C40.38,22.09,41.08,21.59,41.48,21.89Z"/><path class="cls-7" d="M45,57.19c-.1-.7-.4-2.1-.6-1.1s.5,1.1-.1,1.5-.9.3-.6-.1a3.19,3.19,0,0,0,.3-1.4,1.94,1.94,0,0,1,.6-1.3.77.77,0,0,0-.6-1.1c-.3,0-.1.1,0,.2a.51.51,0,0,1,.1.8,4.59,4.59,0,0,0-.7,1.6l-1.9-.9c-.1-.1-.3-.3-.5-.1a4.13,4.13,0,0,0-.7,1.1c.3-.3.9-.7,1.2-.4s1.9.9,1.8,1.3,0,.9-.7.8-1.7.6-1.6,1.1.3.3.8,0,1.7-1.1,1.3-.2c0,1.1-.5,1.2.3,1.4s1.5-.3,1.2-.7-.8-.7-.6-.9S45.18,57.89,45,57.19Z"/><path class="cls-7" d="M17.78,56.59c-.7.1-1.9,1.4-1.7,1.7a.85.85,0,0,0,.6.2c.2-.8.6-2.1.8-1.4a4.76,4.76,0,0,1,.1,1.6c-.5,0-1.5,0-1.7-.3a2,2,0,0,0-.5-.5c.2-.8.4-2.4-.2-2.3a2.48,2.48,0,0,0-1.4,1.8c-.1,0-.1,0-.2.1a3.33,3.33,0,0,1-.3.6l4.5,1.4C18.08,58.29,18.38,56.49,17.78,56.59Z"/><path class="cls-7" d="M73,86.79c-.7.1-1.9,1.4-1.7,1.7a.85.85,0,0,0,.6.2c.2-.8.6-2.1.8-1.4a4.76,4.76,0,0,1,.1,1.6c-.5,0-1.5,0-1.7-.3a2,2,0,0,0-.5-.5c.2-.8.4-2.4-.2-2.3a2.48,2.48,0,0,0-1.4,1.8c-.1,0-.1,0-.2.1a3.33,3.33,0,0,1-.3.6l4.5,1.4C73.28,88.59,73.58,86.69,73,86.79Z"/><path class="cls-7" d="M81.48,73.39c-.7.1-1.9,1.4-1.7,1.7a.85.85,0,0,0,.6.2c.2-.8.6-2.1.8-1.4a4.76,4.76,0,0,1,.1,1.6c-.5,0-1.5,0-1.7-.3a2,2,0,0,0-.5-.5c.2-.8.4-2.4-.2-2.3a2.48,2.48,0,0,0-1.4,1.8c-.1,0-.1,0-.2.1a3.33,3.33,0,0,1-.3.6l4.5,1.4C81.68,75.19,82.08,73.29,81.48,73.39Z"/><path class="cls-7" d="M37.58,35.19a.75.75,0,0,0-.2-.7c-.9.3-2.5.7-1.9.1a4.18,4.18,0,0,1,1.5-1c.3.5.9,1.5.8,1.9a5.07,5.07,0,0,0-.2.9c-.9.3-2.6,1.1-2.1,1.6a2.74,2.74,0,0,0,2.6.3c0,.1.1.1.2.1a2.25,2.25,0,0,1,.7-.1l-1.4-5.2c-1.1.4-3.1,1.2-2.7,1.7S37.38,35.59,37.58,35.19Z"/><path class="cls-7" d="M44.58,45c.3.8,2.1,1.8,2.3,1.5a1,1,0,0,0,.1-.7c-.9,0-2.5-.2-1.8-.6a3.65,3.65,0,0,1,1.8-.4,4.64,4.64,0,0,1,.1,2,5,5,0,0,0-.5.7c-1,0-2.9.1-2.5.7a2.94,2.94,0,0,0,2.3,1.2c0,.1,0,.2.1.2a1.17,1.17,0,0,1,.7.2l.6-5.4C46.58,44.29,44.38,44.29,44.58,45Z"/><path class="cls-7" d="M48,64a2,2,0,0,0-1.7,1h-.2c-.1.2-.3.3-.4.4l3.2,2.5c.5-.7,1.3-2.2.8-2.3s-2,.6-1.9.9a.54.54,0,0,0,.4.3c.4-.6,1.2-1.6,1.1-.9a5,5,0,0,1-.4,1.3c-.4-.1-1.2-.5-1.3-.8a1.63,1.63,0,0,0-.3-.6C47.88,65.39,48.58,64.09,48,64Z"/><path class="cls-7" d="M58.28,89.09a2.39,2.39,0,0,0,.7-.3l-2.7-4.7c-.9.6-2.7,2-2.1,2.4s2.8.2,2.8-.2-.2-.6-.4-.6c-.8.5-2.2,1.3-1.8.6a3.51,3.51,0,0,1,1.2-1.4c.4.4,1.3,1.2,1.2,1.6v.9c-.8.6-2.2,1.8-1.6,2.1a2.65,2.65,0,0,0,2.5-.4Z"/><path class="cls-7" d="M82.68,60.49a.56.56,0,0,0,.7-.1c-.1-.9-.3-2.5.3-1.9a7.43,7.43,0,0,1,.8,1.6c-.5.2-1.6.6-2,.4a5.56,5.56,0,0,1-.8-.4c-.2-1-.6-2.8-1.2-2.4a2.74,2.74,0,0,0-.7,2.5.1.1,0,0,0-.1.1V61l5.4-.5c-.2-1.1-.6-3.3-1.2-2.9C83,58.29,82.28,60.29,82.68,60.49Z"/><path class="cls-7" d="M55.48,72c.8-.1,2.2-1.7,1.9-2a.53.53,0,0,0-.7-.2c-.2.9-.7,2.5-.9,1.6a6.05,6.05,0,0,1-.1-1.8c.6,0,1.7,0,2,.3s.5.6.6.6c-.2,1-.5,2.8.2,2.6a2.83,2.83,0,0,0,1.6-2c.1,0,.2,0,.2-.1.1-.3.3-.6.3-.7l-5.2-1.6C55.18,70,54.78,72.09,55.48,72Z"/><path class="cls-7" d="M65,38.79c-.2-.2-.4-.5-.5-.6l-3.7,4c.9.7,2.7,2,2.9,1.4.2-.8-.6-2.7-1-2.6a.79.79,0,0,0-.5.5c.7.6,1.9,1.7,1.1,1.5a4.73,4.73,0,0,1-1.7-.7c.2-.5.8-1.6,1.1-1.6a2.19,2.19,0,0,0,.8-.3c.8.6,2.3,1.6,2.5.9a2.45,2.45,0,0,0-1.2-2.3C65.08,38.89,65.08,38.89,65,38.79Z"/><path class="cls-7" d="M8.08,74.49c.4.6,1.1,1.1,1.2.6s-.7-1.2-.3-1.6,1.3-.3,1.1-.7-1.6-.7-1.8-1.1-1.1-1.1-1-.4a1,1,0,0,1-1.1,1.1c-.5,0-1.8.1-2.3.1.1.2.4.7.3.9s-.3.8,0,1.1a2.49,2.49,0,0,1,.8,1.2c0,.2,0,.5.2.3A1,1,0,0,1,6,75C7,74.69,7.68,73.89,8.08,74.49Z"/><path class="cls-7" d="M10.48,46.59c.2-.4.3-1.5-.3-1a1,1,0,0,1-1.5-.2c-.3-.3-1.1-1.3-1.5-1.8-.1.2-.3.7-.5.8s-.8.2-.9.7a2.57,2.57,0,0,1-.5,1.4c-.1.1-.4.3-.1.4a1,1,0,0,1,1.3,0c.8.5,1.8.6,1.6,1.3s-.2,1.5.2,1.3.5-1.3,1.1-1.2,1,.8,1.2.4S10.28,47,10.48,46.59Z"/><path class="cls-7" d="M39.88,90.59c.1-.9-.2-1.9.5-2.1s1.5-.5,1.1-.8-1.4.1-1.5-.5.3-1.3-.2-1.3S38.38,87,38,87s-1.5.4-.8.7a1.08,1.08,0,0,1,.5,1.5c-.2.4-.7,1.6-.9,2.1.2,0,.8-.1,1,.1s.5.7,1,.5a2.36,2.36,0,0,1,1.4-.1c.2.1.5.2.4-.1C40.18,91.69,39.78,91.39,39.88,90.59Z"/><path class="cls-7" d="M61.28,29.29c.1.6-.6,1.2-.1,1.3s1.6-.8,2-.7,1.6-.1.9-.5a1.13,1.13,0,0,1-.2-1.6c.3-.4,1-1.4,1.4-1.9-.2,0-.8-.1-.9-.3s-.4-.8-.8-.7-1.3,0-1.4-.2-.4-.3-.4,0a1.16,1.16,0,0,1,.3,1.3c-.3.9-.2,1.9-.9,1.9s-1.5.2-1.2.5C60.18,28.89,61.28,28.69,61.28,29.29Z"/><path class="cls-7" d="M66,45.59c-.6-.3-1.5-.5-1.3,0s1.2.7,1,1.3-1,.8-.6,1.1,1.8-.1,2.1.2,1.5.5,1.1-.1a1.06,1.06,0,0,1,.5-1.5c.4-.2,1.5-.9,2-1.1-.2-.1-.7-.4-.7-.7s0-.8-.5-1a2.47,2.47,0,0,1-1.2-.7c-.1-.2-.3-.5-.4-.2a1,1,0,0,1-.3,1.3C66.88,44.89,66.58,45.89,66,45.59Z"/><path class="cls-7" d="M73.38,68a1,1,0,0,1-1.3.2c-.9-.4-1.9-.3-1.9-1s-.1-1.5-.5-1.3-.3,1.3-.8,1.4-1.1-.6-1.3-.2.7,1.6.6,2,0,1.6.5,1,1.1-.4,1.6-.1,1.3,1.1,1.8,1.5c0-.2.1-.8.4-.9s.8-.3.7-.8a2.57,2.57,0,0,1,.2-1.4C73.48,68.29,73.68,68,73.38,68Z"/><path class="cls-7" d="M35.18,82.69c-.2-.4-1.3-.6-1.1-1.1s.9-1,.4-1.2-1.7.3-2.1.1-1.5-.3-1,.3a.94.94,0,0,1-.3,1.5c-.3.3-1.4,1.1-1.8,1.4.2.1.7.3.8.6s.2.8.6.9a2.69,2.69,0,0,1,1.3.5c.1.1.3.4.4.1a.93.93,0,0,1,.1-1.3c.6-.8.7-1.8,1.4-1.6S35.38,83.19,35.18,82.69Z"/><path class="cls-7" d="M44.28,99.39c-.2-.6.3-1.3-.2-1.3s-1.4,1.1-1.8,1.1-1.5.4-.8.7a1.08,1.08,0,0,1,.5,1.5c-.2.4-.7,1.6-.9,2.1.2,0,.8-.1,1,.1s.5.7,1,.5a4.19,4.19,0,0,1,1.4-.2c.2.1.5.2.4-.1a1.06,1.06,0,0,1-.5-1.2c.1-.9-.2-1.9.5-2.1s1.5-.5,1.1-.8C45.48,99.59,44.48,100,44.28,99.39Z"/><path class="cls-7" d="M12.48,44.19c.6-.4.5-.6-.1-1.4a4.53,4.53,0,0,0-1.5-1.2l-.8-2.1c-.6,0,.1,1.7-.1,2s-1.4-.4-1.9-.3,1.1.7,2.2,1,.9,1.3,1.1,1.8S11.88,44.49,12.48,44.19Z"/><path class="cls-7" d="M62.38,61.29c-.1-.7-.3-.7-1.3-.5a6.22,6.22,0,0,0-1.8.8l-2.1-.1c-.2.5,1.6.7,1.7,1s-.9,1.1-1.1,1.6,1.1-.8,1.9-1.6,1.6-.2,2.1-.2S62.48,62,62.38,61.29Z"/><path class="cls-7" d="M45.18,70.39c-.9-.7-.3-1.6-.3-2.1s-.3-.6-1-.5-.7.3-.4,1.3a4.26,4.26,0,0,0,.9,1.7l-.1,2.2c.6.2.6-1.6.9-1.7s1.2.9,1.7,1S46.08,71.09,45.18,70.39Z"/><path class="cls-7" d="M54,52.29a18.75,18.75,0,0,0,1.2-1.5l2.1-.8c-.1-.6-1.7.1-2-.1s.3-1.4.2-1.9-.7,1.2-1,2.3-1.3.9-1.8,1.2-.5.5-.1,1.1C53,53,53.18,53,54,52.29Z"/><path class="cls-7" d="M17,38c0,.3.6-.1.8-.4s1.3-1.6,1.6-1.2,1,.5.9.1-1-1.3-1.2-1.8-.5-1.4-.6-.8-.1.7-.3.6-.4.2,0,.4.9.6.7.8-.8.9-1.2.8-2.3-.8-2.4-1.7-.3-1.5.2-1.8.1-1.4-.7-.7a2.08,2.08,0,0,0-.4,2.2C14.78,35.59,17,37.69,17,38Z"/><path class="cls-7" d="M30.08,63.09c-.3.1.3.6.7.7s1.9.8,1.6,1.1-.2,1.2.2.9a19.23,19.23,0,0,1,1.3-1.7c.4-.3,1.2-.9.6-.8s-.7.1-.7-.1-.3-.3-.4.2-.3,1-.5.9-1.1-.4-1.1-.9.1-2.4,1-2.8,1.3-.7,1.8-.4,1.4-.4.4-.8a2.46,2.46,0,0,0-2.3.3C31.78,60.29,30.38,63,30.08,63.09Z"/><path class="cls-7" d="M29.78,49.79c.5.2.7.2.6.4s.2.4.4,0,.7-.8.9-.5.8.9.6,1.3-1.1,2.1-2.1,2.1-1.5.1-1.8-.5-1.4-.3-.8.5a2.65,2.65,0,0,0,2.2.8c1.2-.2,3.6-2.1,3.9-2s0-.6-.3-.9-1.4-1.5-1-1.7.7-1,.2-.9-1.4.8-1.9.9S29.28,49.59,29.78,49.79Z"/><path class="cls-7" d="M48.18,60.19c-.1.5-.2,1.4.2,1s.4-.6.6-.4.4,0,.1-.4-.5-.9-.2-1,1.1-.5,1.4-.1,1.7,1.7,1.3,2.6-.4,1.5-1,1.6-.7,1.2.3.9a2.69,2.69,0,0,0,1.4-1.8c.1-1.2-.9-4.1-.8-4.3s-.6-.2-.9,0-1.9.8-2,.4-.7-.9-.8-.5S48.18,59.59,48.18,60.19Z"/><path class="cls-7" d="M75.08,77.09c-.2-.3-.5.4-.6.7s-.5,2-.9,1.8-1.2,0-.9.3,1.5.7,1.8,1.1,1,1,.9.5-.2-.7,0-.7.2-.4-.2-.3-1-.2-.9-.4.3-1.2.8-1.2,2.4-.3,2.9.6.9,1.2.6,1.7.5,1.3.9.3a2.7,2.7,0,0,0-.6-2.3C78.08,78.39,75.28,77.39,75.08,77.09Z"/><path class="cls-7" d="M37.28,98c-.4.1-2,.2-2-.3s-.4-1.1-.6-.7-.2,1.6-.4,2.1-.6,1.3-.2,1,.5-.4.7-.2.4.1.3-.3-.2-1,.1-1,1.2-.1,1.4.3,1.1,2.2.4,2.9-.8,1.3-1.4,1.2-1,1,0,.9a2.57,2.57,0,0,0,1.9-1.3c.5-1.1.4-4.1.6-4.4C38.38,98.09,37.68,98,37.28,98Z"/><path class="cls-7" d="M25.88,83.19c-.3-.2-1.5-1.4-1.2-1.6s.5-1,.1-.9-1.3,1-1.8,1.2-1.4.5-.8.6.7.1.6.3.2.4.4,0,.6-.9.8-.6.9.8.7,1.2-.9,2.2-1.8,2.3-1.5.3-1.8-.2-1.4-.1-.7.6a2.76,2.76,0,0,0,2.3.5c1.1-.4,3.3-2.5,3.6-2.5S26.18,83.39,25.88,83.19Z"/></svg>